<?xml version="1.0" encoding="UTF-8" standalone="no"?>
<svg
   width="125mm"
   height="125mm"
   viewBox="0 0 125 125"
   version="1.1"
   id="svg1"
   xmlns="http://www.w3.org/2000/svg"
   xmlns:svg="http://www.w3.org/2000/svg">
  <defs
     id="defs1" />
  <g
     id="layer1"
     transform="translate(-44.716349,-67.991027)">
    <path
       id="path19"
       style="fill:none;stroke:#ffffff;stroke-width:3;stroke-linecap:round;stroke-dasharray:none;stroke-opacity:1"
       d="M 140.3608,175.50556 A 53.495033,56.313553 0 0 1 108.3972,186.66328 53.495033,56.313553 0 0 1 54.902163,130.34972 53.495033,56.313553 0 0 1 108.3972,74.036167 53.495033,56.313553 0 0 1 151.32257,96.743925" />
    <path
       id="path9"
       style="fill:none;stroke:#f52e2e;stroke-width:3.07343;stroke-linecap:round"
       d="m 159.07938,135.66692 a 33.30127,33.501362 0 0 1 -33.30127,33.50136 33.30127,33.501362 0 0 1 -33.301252,-33.50136 33.30127,33.501362 0 0 1 33.301252,-33.50135 33.30127,33.501362 0 0 1 33.30127,33.50135 z m -4.96112,-32.12176 a 40.204302,48.046449 0 0 1 6.52164,26.23318 v 0 a 40.204302,48.046449 0 0 1 -13.68133,36.1081 m 0.39765,-0.41534 c -2.22736,1.86573 -3.33491,7.54304 2.09557,6.63955" />
  </g>
</svg>